<svg width="328" height="84" viewBox="0 0 328 84" fill="none" xmlns="http://www.w3.org/2000/svg">
<rect width="328" height="84" fill="#1E1E1E"/>
<g clip-path="url(#clip0_0_1)">
<rect width="328" height="84" rx="8" fill="#6732D1"/>
<text fill="#FFF2E8" xml:space="preserve" style="white-space: pre" font-family="Source Sans Pro" font-size="20" font-weight="bold" letter-spacing="0em"><tspan x="16" y="31.11">Aqui vai um t&#xed;tulo legal</tspan></text>
<text fill="#FFF2E8" xml:space="preserve" style="white-space: pre" font-family="Source Sans Pro" font-size="12" letter-spacing="0em"><tspan x="16" y="50.266">Aqui vai um subt&#xed;tulo ainda mais legal </tspan><tspan x="16" y="66.266">que o t&#xed;tulo</tspan></text>
<path d="M291.233 12.006C280.402 -6.10741 264.258 4.44299 263.055 12.006C251.261 10.6127 246.406 21.8755 246.105 27.6811C240.838 26.129 232.912 32.0451 232.067 42.0632C231.223 52.0813 238.384 58.9005 250.317 56.5929C257.056 70.2476 271.978 65.5335 278.597 61.4696C292.075 74.8457 301.261 62.1663 304.169 54.1546C306.175 55.4318 311.51 56.8716 316.805 52.4129C330.027 38.5798 317.692 23.6014 307.779 24.5461C305.373 12.842 295.745 11.3093 291.233 12.006Z" fill="#EEE6FC"/>
<path fill-rule="evenodd" clip-rule="evenodd" d="M232.122 41.5049C233.1 49.4772 239.885 54.4348 250.317 52.4175C257.056 66.0722 271.978 61.3581 278.597 57.2942C292.075 70.6703 301.261 57.9909 304.169 49.9792C306.175 51.2564 311.51 52.6962 316.805 48.2375C320.225 44.6595 321.935 41.0048 322.42 37.5689C323.067 42.1092 321.656 47.3381 316.805 52.4129C311.51 56.8716 306.175 55.4318 304.169 54.1546C301.261 62.1663 292.075 74.8457 278.597 61.4696C271.978 65.5335 257.056 70.2477 250.317 56.5929C238.384 58.9005 231.223 52.0813 232.067 42.0632C232.083 41.8756 232.101 41.6895 232.122 41.5049Z" fill="#B89FEA"/>
<path d="M287.796 57.8331C295.229 74.0298 312.098 95.8046 320.107 53.3296C321.789 55.0474 325.2 59.3018 325.391 62.5769" stroke="#241249" stroke-width="2.40458" stroke-linecap="round" stroke-linejoin="round"/>
<path d="M264.295 59.8604C262.997 74.2228 266.153 96.2915 289.162 69.6665C289.661 71.5484 290.36 75.9067 289.162 78.2839" stroke="#241249" stroke-width="2.40458" stroke-linecap="round" stroke-linejoin="round"/>
<path d="M247.201 31.2914C241.431 35.5692 230.679 46.008 233.829 53.5405C236.98 61.073 252.191 52.0399 259.403 46.5817C259.013 42.7628 258.636 41.5651 256.639 38.4469" stroke="#241249" stroke-width="2.40458" stroke-linecap="round" stroke-linejoin="round"/>
<path d="M299.494 32.7909C306.112 34.5326 319.016 43.3718 315.865 50.9043C312.715 58.4367 287.826 51.4806 280.615 46.0225C281.004 42.2036 281.382 41.0058 283.379 37.8876" stroke="#241249" stroke-width="2.40458" stroke-linecap="round" stroke-linejoin="round"/>
<path d="M248.043 15.9636C248.485 9.59009 253.745 15.2201 256.32 18.8317C258.16 15.5387 262.666 9.90876 265.977 13.7329C269.132 17.3775 262.848 26.1358 258.828 30.6284C258.498 30.9965 257.949 31.0563 257.551 30.7634C253.823 28.0187 247.629 21.9444 248.043 15.9636Z" fill="#6732D1"/>
<path d="M268.949 14.2006C269.506 7.23391 276.147 13.3878 279.399 17.3356C281.721 13.7362 287.41 7.58225 291.59 11.7623C295.623 15.7952 287.443 25.5564 282.378 30.4097C282.058 30.7159 281.578 30.7698 281.203 30.5353C276.528 27.6152 268.416 20.8549 268.949 14.2006Z" fill="#6732D1"/>
<path d="M275.226 30.9071C269.697 31.407 265.883 33.0121 263.956 34.1978C263.409 34.5338 263.434 35.2894 263.971 35.639C271.126 40.2914 274.853 35.8502 276.18 32.0809C276.4 31.455 275.887 30.8474 275.226 30.9071Z" fill="white"/>
</g>
<defs>
<clipPath id="clip0_0_1">
<rect width="328" height="84" rx="8" fill="white"/>
</clipPath>
</defs>
</svg>
