<svg width="328" height="94" viewBox="0 0 328 94" fill="none" xmlns="http://www.w3.org/2000/svg">
<rect width="328" height="94" rx="8" fill="#6732D1"/>
<path d="M17.54 36V22.96H20.56L23.96 29.44L25.24 32.32H25.32C25.2667 31.6267 25.1933 30.8533 25.1 30C25.0067 29.1467 24.96 28.3333 24.96 27.56V22.96H27.76V36H24.74L21.34 29.5L20.06 26.66H19.98C20.0467 27.38 20.12 28.1533 20.2 28.98C20.2933 29.8067 20.34 30.6067 20.34 31.38V36H17.54ZM34.8608 36.24C34.0208 36.24 33.2274 36.04 32.4808 35.64C31.7474 35.2267 31.1541 34.6333 30.7008 33.86C30.2474 33.0733 30.0208 32.1333 30.0208 31.04C30.0208 29.9333 30.2474 28.9933 30.7008 28.22C31.1541 27.4467 31.7474 26.86 32.4808 26.46C33.2274 26.0467 34.0208 25.84 34.8608 25.84C35.7008 25.84 36.4874 26.0467 37.2208 26.46C37.9541 26.86 38.5474 27.4467 39.0008 28.22C39.4541 28.9933 39.6808 29.9333 39.6808 31.04C39.6808 32.1333 39.4541 33.0733 39.0008 33.86C38.5474 34.6333 37.9541 35.2267 37.2208 35.64C36.4874 36.04 35.7008 36.24 34.8608 36.24ZM34.8608 33.86C35.4608 33.86 35.9141 33.6067 36.2208 33.1C36.5274 32.58 36.6808 31.8933 36.6808 31.04C36.6808 30.1733 36.5274 29.4867 36.2208 28.98C35.9141 28.4733 35.4608 28.22 34.8608 28.22C34.2474 28.22 33.7874 28.4733 33.4808 28.98C33.1874 29.4867 33.0408 30.1733 33.0408 31.04C33.0408 31.8933 33.1874 32.58 33.4808 33.1C33.7874 33.6067 34.2474 33.86 34.8608 33.86ZM44.5169 36.24C43.8635 36.24 43.1902 36.1133 42.4969 35.86C41.8169 35.6067 41.2235 35.2733 40.7169 34.86L42.0369 33.02C42.4902 33.3533 42.9235 33.6133 43.3369 33.8C43.7635 33.9733 44.1835 34.06 44.5969 34.06C45.0369 34.06 45.3569 33.9867 45.5569 33.84C45.7569 33.68 45.8569 33.4733 45.8569 33.22C45.8569 32.9933 45.7569 32.8067 45.5569 32.66C45.3702 32.5133 45.1235 32.38 44.8169 32.26C44.5102 32.1267 44.1835 31.9933 43.8369 31.86C43.4369 31.7 43.0369 31.5 42.6369 31.26C42.2502 31.02 41.9235 30.7133 41.6569 30.34C41.3902 29.9533 41.2569 29.4867 41.2569 28.94C41.2569 28.02 41.6035 27.2733 42.2969 26.7C43.0035 26.1267 43.9235 25.84 45.0569 25.84C45.8169 25.84 46.4835 25.9733 47.0569 26.24C47.6435 26.4933 48.1435 26.78 48.5569 27.1L47.2369 28.86C46.8902 28.5933 46.5435 28.3867 46.1969 28.24C45.8502 28.0933 45.5035 28.02 45.1569 28.02C44.3969 28.02 44.0169 28.28 44.0169 28.8C44.0169 29.12 44.2035 29.3667 44.5769 29.54C44.9635 29.7 45.4102 29.8733 45.9169 30.06C46.3435 30.2067 46.7569 30.4 47.1569 30.64C47.5702 30.8667 47.9102 31.1733 48.1769 31.56C48.4569 31.9333 48.5969 32.4267 48.5969 33.04C48.5969 33.9333 48.2502 34.6933 47.5569 35.32C46.8635 35.9333 45.8502 36.24 44.5169 36.24ZM53.3841 36.24C52.7307 36.24 52.0574 36.1133 51.3641 35.86C50.6841 35.6067 50.0907 35.2733 49.5841 34.86L50.9041 33.02C51.3574 33.3533 51.7907 33.6133 52.2041 33.8C52.6307 33.9733 53.0507 34.06 53.4641 34.06C53.9041 34.06 54.2241 33.9867 54.4241 33.84C54.6241 33.68 54.7241 33.4733 54.7241 33.22C54.7241 32.9933 54.6241 32.8067 54.4241 32.66C54.2374 32.5133 53.9907 32.38 53.6841 32.26C53.3774 32.1267 53.0507 31.9933 52.7041 31.86C52.3041 31.7 51.9041 31.5 51.5041 31.26C51.1174 31.02 50.7907 30.7133 50.5241 30.34C50.2574 29.9533 50.1241 29.4867 50.1241 28.94C50.1241 28.02 50.4707 27.2733 51.1641 26.7C51.8707 26.1267 52.7907 25.84 53.9241 25.84C54.6841 25.84 55.3507 25.9733 55.9241 26.24C56.5107 26.4933 57.0107 26.78 57.4241 27.1L56.1041 28.86C55.7574 28.5933 55.4107 28.3867 55.0641 28.24C54.7174 28.0933 54.3707 28.02 54.0241 28.02C53.2641 28.02 52.8841 28.28 52.8841 28.8C52.8841 29.12 53.0707 29.3667 53.4441 29.54C53.8307 29.7 54.2774 29.8733 54.7841 30.06C55.2107 30.2067 55.6241 30.4 56.0241 30.64C56.4374 30.8667 56.7774 31.1733 57.0441 31.56C57.3241 31.9333 57.4641 32.4267 57.4641 33.04C57.4641 33.9333 57.1174 34.6933 56.4241 35.32C55.7307 35.9333 54.7174 36.24 53.3841 36.24ZM63.5913 36.24C62.7513 36.24 61.9579 36.04 61.2113 35.64C60.4779 35.2267 59.8846 34.6333 59.4313 33.86C58.9779 33.0733 58.7513 32.1333 58.7513 31.04C58.7513 29.9333 58.9779 28.9933 59.4313 28.22C59.8846 27.4467 60.4779 26.86 61.2113 26.46C61.9579 26.0467 62.7513 25.84 63.5913 25.84C64.4313 25.84 65.2179 26.0467 65.9513 26.46C66.6846 26.86 67.2779 27.4467 67.7313 28.22C68.1846 28.9933 68.4113 29.9333 68.4113 31.04C68.4113 32.1333 68.1846 33.0733 67.7313 33.86C67.2779 34.6333 66.6846 35.2267 65.9513 35.64C65.2179 36.04 64.4313 36.24 63.5913 36.24ZM63.5913 33.86C64.1913 33.86 64.6446 33.6067 64.9513 33.1C65.2579 32.58 65.4113 31.8933 65.4113 31.04C65.4113 30.1733 65.2579 29.4867 64.9513 28.98C64.6446 28.4733 64.1913 28.22 63.5913 28.22C62.9779 28.22 62.5179 28.4733 62.2113 28.98C61.9179 29.4867 61.7713 30.1733 61.7713 31.04C61.7713 31.8933 61.9179 32.58 62.2113 33.1C62.5179 33.6067 62.9779 33.86 63.5913 33.86ZM78.2489 36.24C77.0222 36.24 76.1422 35.8867 75.6089 35.18C75.0889 34.4733 74.8289 33.5467 74.8289 32.4V28.38H73.4689V26.2L74.9889 26.08L75.3289 23.44H77.7689V26.08H80.1489V28.38H77.7689V32.36C77.7689 32.92 77.8822 33.3267 78.1089 33.58C78.3489 33.82 78.6622 33.94 79.0489 33.94C79.2089 33.94 79.3689 33.92 79.5289 33.88C79.7022 33.84 79.8556 33.7933 79.9889 33.74L80.4489 35.88C80.1956 35.96 79.8822 36.04 79.5089 36.12C79.1489 36.2 78.7289 36.24 78.2489 36.24ZM86.1736 36.24C85.2269 36.24 84.3736 36.0333 83.6136 35.62C82.8536 35.2067 82.2536 34.6133 81.8136 33.84C81.3736 33.0667 81.1536 32.1333 81.1536 31.04C81.1536 29.96 81.3736 29.0333 81.8136 28.26C82.2669 27.4867 82.8536 26.8933 83.5736 26.48C84.2936 26.0533 85.0469 25.84 85.8336 25.84C86.7803 25.84 87.5603 26.0533 88.1736 26.48C88.8003 26.8933 89.2669 27.46 89.5736 28.18C89.8936 28.8867 90.0536 29.6933 90.0536 30.6C90.0536 30.8533 90.0403 31.1067 90.0136 31.36C89.9869 31.6 89.9603 31.78 89.9336 31.9H83.9936C84.1269 32.62 84.4269 33.1533 84.8936 33.5C85.3603 33.8333 85.9203 34 86.5736 34C87.2803 34 87.9936 33.78 88.7136 33.34L89.6936 35.12C89.1869 35.4667 88.6203 35.74 87.9936 35.94C87.3669 36.14 86.7603 36.24 86.1736 36.24ZM83.9736 29.96H87.5536C87.5536 29.4133 87.4203 28.9667 87.1536 28.62C86.9003 28.26 86.4803 28.08 85.8936 28.08C85.4403 28.08 85.0336 28.24 84.6736 28.56C84.3136 28.8667 84.0803 29.3333 83.9736 29.96ZM95.0052 36.24C94.3518 36.24 93.6785 36.1133 92.9852 35.86C92.3052 35.6067 91.7118 35.2733 91.2052 34.86L92.5252 33.02C92.9785 33.3533 93.4118 33.6133 93.8252 33.8C94.2518 33.9733 94.6718 34.06 95.0852 34.06C95.5252 34.06 95.8452 33.9867 96.0452 33.84C96.2452 33.68 96.3452 33.4733 96.3452 33.22C96.3452 32.9933 96.2452 32.8067 96.0452 32.66C95.8585 32.5133 95.6118 32.38 95.3052 32.26C94.9985 32.1267 94.6718 31.9933 94.3252 31.86C93.9252 31.7 93.5252 31.5 93.1252 31.26C92.7385 31.02 92.4118 30.7133 92.1452 30.34C91.8785 29.9533 91.7452 29.4867 91.7452 28.94C91.7452 28.02 92.0918 27.2733 92.7852 26.7C93.4918 26.1267 94.4118 25.84 95.5452 25.84C96.3052 25.84 96.9718 25.9733 97.5452 26.24C98.1318 26.4933 98.6318 26.78 99.0452 27.1L97.7252 28.86C97.3785 28.5933 97.0318 28.3867 96.6852 28.24C96.3385 28.0933 95.9918 28.02 95.6452 28.02C94.8852 28.02 94.5052 28.28 94.5052 28.8C94.5052 29.12 94.6918 29.3667 95.0652 29.54C95.4518 29.7 95.8985 29.8733 96.4052 30.06C96.8318 30.2067 97.2452 30.4 97.6452 30.64C98.0585 30.8667 98.3985 31.1733 98.6652 31.56C98.9452 31.9333 99.0852 32.4267 99.0852 33.04C99.0852 33.9333 98.7385 34.6933 98.0452 35.32C97.3518 35.9333 96.3385 36.24 95.0052 36.24ZM104.382 36.24C103.155 36.24 102.275 35.8867 101.742 35.18C101.222 34.4733 100.962 33.5467 100.962 32.4V28.38H99.6017V26.2L101.122 26.08L101.462 23.44H103.902V26.08H106.282V28.38H103.902V32.36C103.902 32.92 104.015 33.3267 104.242 33.58C104.482 33.82 104.795 33.94 105.182 33.94C105.342 33.94 105.502 33.92 105.662 33.88C105.835 33.84 105.988 33.7933 106.122 33.74L106.582 35.88C106.328 35.96 106.015 36.04 105.642 36.12C105.282 36.2 104.862 36.24 104.382 36.24ZM112.306 36.24C111.36 36.24 110.506 36.0333 109.746 35.62C108.986 35.2067 108.386 34.6133 107.946 33.84C107.506 33.0667 107.286 32.1333 107.286 31.04C107.286 29.96 107.506 29.0333 107.946 28.26C108.4 27.4867 108.986 26.8933 109.706 26.48C110.426 26.0533 111.18 25.84 111.966 25.84C112.913 25.84 113.693 26.0533 114.306 26.48C114.933 26.8933 115.4 27.46 115.706 28.18C116.026 28.8867 116.186 29.6933 116.186 30.6C116.186 30.8533 116.173 31.1067 116.146 31.36C116.12 31.6 116.093 31.78 116.066 31.9H110.126C110.26 32.62 110.56 33.1533 111.026 33.5C111.493 33.8333 112.053 34 112.706 34C113.413 34 114.126 33.78 114.846 33.34L115.826 35.12C115.32 35.4667 114.753 35.74 114.126 35.94C113.5 36.14 112.893 36.24 112.306 36.24ZM110.106 29.96H113.686C113.686 29.4133 113.553 28.9667 113.286 28.62C113.033 28.26 112.613 28.08 112.026 28.08C111.573 28.08 111.166 28.24 110.806 28.56C110.446 28.8667 110.213 29.3333 110.106 29.96ZM125.762 36.24C124.535 36.24 123.549 35.78 122.802 34.86C122.069 33.9267 121.702 32.6533 121.702 31.04C121.702 29.96 121.895 29.0333 122.282 28.26C122.682 27.4733 123.195 26.8733 123.822 26.46C124.462 26.0467 125.129 25.84 125.822 25.84C126.369 25.84 126.829 25.9333 127.202 26.12C127.575 26.3067 127.929 26.56 128.262 26.88L128.142 25.36V21.98H131.082V36H128.682L128.482 35.02H128.402C128.055 35.3667 127.649 35.66 127.182 35.9C126.715 36.1267 126.242 36.24 125.762 36.24ZM126.522 33.84C126.842 33.84 127.129 33.7733 127.382 33.64C127.649 33.5067 127.902 33.2733 128.142 32.94V28.88C127.889 28.64 127.615 28.4733 127.322 28.38C127.042 28.2867 126.769 28.24 126.502 28.24C126.035 28.24 125.622 28.4667 125.262 28.92C124.902 29.36 124.722 30.0533 124.722 31C124.722 31.9733 124.875 32.6933 125.182 33.16C125.502 33.6133 125.949 33.84 126.522 33.84ZM138.127 36.24C137.18 36.24 136.327 36.0333 135.567 35.62C134.807 35.2067 134.207 34.6133 133.767 33.84C133.327 33.0667 133.107 32.1333 133.107 31.04C133.107 29.96 133.327 29.0333 133.767 28.26C134.22 27.4867 134.807 26.8933 135.527 26.48C136.247 26.0533 137 25.84 137.787 25.84C138.733 25.84 139.513 26.0533 140.127 26.48C140.753 26.8933 141.22 27.46 141.527 28.18C141.847 28.8867 142.007 29.6933 142.007 30.6C142.007 30.8533 141.993 31.1067 141.967 31.36C141.94 31.6 141.913 31.78 141.887 31.9H135.947C136.08 32.62 136.38 33.1533 136.847 33.5C137.313 33.8333 137.873 34 138.527 34C139.233 34 139.947 33.78 140.667 33.34L141.647 35.12C141.14 35.4667 140.573 35.74 139.947 35.94C139.32 36.14 138.713 36.24 138.127 36.24ZM135.927 29.96H139.507C139.507 29.4133 139.373 28.9667 139.107 28.62C138.853 28.26 138.433 28.08 137.847 28.08C137.393 28.08 136.987 28.24 136.627 28.56C136.267 28.8667 136.033 29.3333 135.927 29.96ZM149.702 36L147.222 26.08H150.142L151.102 30.68C151.182 31.1733 151.256 31.66 151.322 32.14C151.389 32.62 151.462 33.1133 151.542 33.62H151.622C151.716 33.1133 151.802 32.6133 151.882 32.12C151.976 31.6267 152.082 31.1467 152.202 30.68L153.302 26.08H155.842L156.962 30.68C157.082 31.1733 157.189 31.66 157.282 32.14C157.389 32.62 157.489 33.1133 157.582 33.62H157.662C157.756 33.1133 157.829 32.62 157.882 32.14C157.949 31.66 158.029 31.1733 158.122 30.68L159.062 26.08H161.782L159.402 36H155.962L155.062 32.04C154.969 31.5733 154.876 31.1067 154.782 30.64C154.702 30.1733 154.616 29.6733 154.522 29.14H154.442C154.349 29.6733 154.262 30.1733 154.182 30.64C154.116 31.1067 154.036 31.5733 153.942 32.04L153.062 36H149.702ZM163.57 36V26.08H166.51V36H163.57ZM165.03 24.62C164.536 24.62 164.136 24.48 163.83 24.2C163.523 23.92 163.37 23.5467 163.37 23.08C163.37 22.6133 163.523 22.24 163.83 21.96C164.136 21.68 164.536 21.54 165.03 21.54C165.523 21.54 165.923 21.68 166.23 21.96C166.536 22.24 166.69 22.6133 166.69 23.08C166.69 23.5467 166.536 23.92 166.23 24.2C165.923 24.48 165.523 24.62 165.03 24.62ZM172.637 36.24C171.41 36.24 170.424 35.78 169.677 34.86C168.944 33.9267 168.577 32.6533 168.577 31.04C168.577 29.96 168.77 29.0333 169.157 28.26C169.557 27.4733 170.07 26.8733 170.697 26.46C171.337 26.0467 172.004 25.84 172.697 25.84C173.244 25.84 173.704 25.9333 174.077 26.12C174.45 26.3067 174.804 26.56 175.137 26.88L175.017 25.36V21.98H177.957V36H175.557L175.357 35.02H175.277C174.93 35.3667 174.524 35.66 174.057 35.9C173.59 36.1267 173.117 36.24 172.637 36.24ZM173.397 33.84C173.717 33.84 174.004 33.7733 174.257 33.64C174.524 33.5067 174.777 33.2733 175.017 32.94V28.88C174.764 28.64 174.49 28.4733 174.197 28.38C173.917 28.2867 173.644 28.24 173.377 28.24C172.91 28.24 172.497 28.4667 172.137 28.92C171.777 29.36 171.597 30.0533 171.597 31C171.597 31.9733 171.75 32.6933 172.057 33.16C172.377 33.6133 172.824 33.84 173.397 33.84ZM184.102 40.22C183.328 40.22 182.628 40.1333 182.002 39.96C181.375 39.7867 180.875 39.5133 180.502 39.14C180.128 38.7667 179.942 38.2867 179.942 37.7C179.942 36.9 180.415 36.2333 181.362 35.7V35.62C181.108 35.4467 180.888 35.2267 180.702 34.96C180.528 34.6933 180.442 34.3533 180.442 33.94C180.442 33.58 180.548 33.2333 180.762 32.9C180.975 32.5667 181.242 32.2933 181.562 32.08V32C181.215 31.76 180.902 31.4133 180.622 30.96C180.355 30.5067 180.222 29.9933 180.222 29.42C180.222 28.62 180.415 27.96 180.802 27.44C181.188 26.9067 181.695 26.5067 182.322 26.24C182.948 25.9733 183.615 25.84 184.322 25.84C184.908 25.84 185.422 25.92 185.862 26.08H189.482V28.22H187.902C187.995 28.3667 188.068 28.5533 188.122 28.78C188.188 29.0067 188.222 29.2533 188.222 29.52C188.222 30.28 188.048 30.9067 187.702 31.4C187.355 31.8933 186.888 32.26 186.302 32.5C185.715 32.74 185.055 32.86 184.322 32.86C183.935 32.86 183.535 32.7933 183.122 32.66C182.882 32.86 182.762 33.1067 182.762 33.4C182.762 33.6533 182.875 33.84 183.102 33.96C183.328 34.08 183.715 34.14 184.262 34.14H185.862C187.088 34.14 188.022 34.34 188.662 34.74C189.315 35.1267 189.642 35.7667 189.642 36.66C189.642 37.34 189.415 37.9467 188.962 38.48C188.508 39.0267 187.868 39.4533 187.042 39.76C186.215 40.0667 185.235 40.22 184.102 40.22ZM184.322 31.08C184.708 31.08 185.028 30.94 185.282 30.66C185.548 30.38 185.682 29.9667 185.682 29.42C185.682 28.9 185.548 28.5067 185.282 28.24C185.028 27.96 184.708 27.82 184.322 27.82C183.935 27.82 183.608 27.9533 183.342 28.22C183.088 28.4867 182.962 28.8867 182.962 29.42C182.962 29.9667 183.088 30.38 183.342 30.66C183.608 30.94 183.935 31.08 184.322 31.08ZM184.562 38.38C185.228 38.38 185.775 38.26 186.202 38.02C186.628 37.78 186.842 37.4933 186.842 37.16C186.842 36.8533 186.708 36.6467 186.442 36.54C186.188 36.4333 185.815 36.38 185.322 36.38H184.302C183.968 36.38 183.688 36.3667 183.462 36.34C183.248 36.3267 183.062 36.3 182.902 36.26C182.542 36.58 182.362 36.9067 182.362 37.24C182.362 37.6133 182.562 37.8933 182.962 38.08C183.375 38.28 183.908 38.38 184.562 38.38ZM195.334 36.24C194.387 36.24 193.534 36.0333 192.774 35.62C192.014 35.2067 191.414 34.6133 190.974 33.84C190.534 33.0667 190.314 32.1333 190.314 31.04C190.314 29.96 190.534 29.0333 190.974 28.26C191.427 27.4867 192.014 26.8933 192.734 26.48C193.454 26.0533 194.207 25.84 194.994 25.84C195.94 25.84 196.72 26.0533 197.334 26.48C197.96 26.8933 198.427 27.46 198.734 28.18C199.054 28.8867 199.214 29.6933 199.214 30.6C199.214 30.8533 199.2 31.1067 199.174 31.36C199.147 31.6 199.12 31.78 199.094 31.9H193.154C193.287 32.62 193.587 33.1533 194.054 33.5C194.52 33.8333 195.08 34 195.734 34C196.44 34 197.154 33.78 197.874 33.34L198.854 35.12C198.347 35.4667 197.78 35.74 197.154 35.94C196.527 36.14 195.92 36.24 195.334 36.24ZM193.134 29.96H196.714C196.714 29.4133 196.58 28.9667 196.314 28.62C196.06 28.26 195.64 28.08 195.054 28.08C194.6 28.08 194.194 28.24 193.834 28.56C193.474 28.8667 193.24 29.3333 193.134 29.96ZM204.87 36.24C203.643 36.24 202.763 35.8867 202.23 35.18C201.71 34.4733 201.45 33.5467 201.45 32.4V28.38H200.09V26.2L201.61 26.08L201.95 23.44H204.39V26.08H206.77V28.38H204.39V32.36C204.39 32.92 204.503 33.3267 204.73 33.58C204.97 33.82 205.283 33.94 205.67 33.94C205.83 33.94 205.99 33.92 206.15 33.88C206.323 33.84 206.477 33.7933 206.61 33.74L207.07 35.88C206.817 35.96 206.503 36.04 206.13 36.12C205.77 36.2 205.35 36.24 204.87 36.24Z" fill="white"/>
<path d="M19.984 55.144C19.328 55.144 18.744 54.976 18.232 54.64C17.728 54.304 17.332 53.828 17.044 53.212C16.764 52.596 16.624 51.868 16.624 51.028C16.624 50.188 16.764 49.468 17.044 48.868C17.332 48.26 17.728 47.796 18.232 47.476C18.744 47.148 19.328 46.984 19.984 46.984C20.648 46.984 21.232 47.148 21.736 47.476C22.24 47.796 22.636 48.26 22.924 48.868C23.212 49.468 23.356 50.188 23.356 51.028C23.356 51.868 23.212 52.596 22.924 53.212C22.636 53.828 22.24 54.304 21.736 54.64C21.232 54.976 20.648 55.144 19.984 55.144ZM19.984 54.268C20.456 54.268 20.864 54.136 21.208 53.872C21.56 53.6 21.832 53.224 22.024 52.744C22.216 52.256 22.312 51.684 22.312 51.028C22.312 50.052 22.1 49.28 21.676 48.712C21.252 48.144 20.688 47.86 19.984 47.86C19.28 47.86 18.716 48.144 18.292 48.712C17.868 49.28 17.656 50.052 17.656 51.028C17.656 51.684 17.752 52.256 17.944 52.744C18.136 53.224 18.408 53.6 18.76 53.872C19.112 54.136 19.52 54.268 19.984 54.268ZM25.9968 55.144C25.6288 55.144 25.3608 55.032 25.1928 54.808C25.0328 54.576 24.9528 54.248 24.9528 53.824V46.456H25.9368V53.896C25.9368 54.048 25.9648 54.16 26.0208 54.232C26.0768 54.296 26.1408 54.328 26.2128 54.328C26.2448 54.328 26.2728 54.328 26.2968 54.328C26.3288 54.32 26.3728 54.312 26.4288 54.304L26.5608 55.048C26.4968 55.08 26.4208 55.104 26.3328 55.12C26.2448 55.136 26.1328 55.144 25.9968 55.144ZM28.0113 55V46.456H28.9953V48.784L28.9593 49.984C29.2393 49.72 29.5313 49.496 29.8353 49.312C30.1473 49.12 30.5033 49.024 30.9033 49.024C31.5193 49.024 31.9673 49.22 32.2473 49.612C32.5353 49.996 32.6793 50.56 32.6793 51.304V55H31.6953V51.436C31.6953 50.892 31.6073 50.496 31.4313 50.248C31.2553 50 30.9753 49.876 30.5913 49.876C30.2953 49.876 30.0273 49.952 29.7873 50.104C29.5553 50.256 29.2913 50.48 28.9953 50.776V55H28.0113ZM35.8827 55.144C35.3947 55.144 34.9867 55 34.6587 54.712C34.3387 54.416 34.1787 54.008 34.1787 53.488C34.1787 52.848 34.4627 52.36 35.0307 52.024C35.6067 51.68 36.5147 51.44 37.7547 51.304C37.7547 51.056 37.7187 50.82 37.6467 50.596C37.5827 50.372 37.4627 50.192 37.2867 50.056C37.1187 49.912 36.8747 49.84 36.5547 49.84C36.2187 49.84 35.9027 49.904 35.6067 50.032C35.3107 50.16 35.0467 50.304 34.8147 50.464L34.4307 49.78C34.7027 49.604 35.0347 49.436 35.4267 49.276C35.8267 49.108 36.2587 49.024 36.7227 49.024C37.4347 49.024 37.9507 49.244 38.2707 49.684C38.5907 50.116 38.7507 50.696 38.7507 51.424V55H37.9347L37.8507 54.304H37.8147C37.5427 54.528 37.2427 54.724 36.9147 54.892C36.5947 55.06 36.2507 55.144 35.8827 55.144ZM36.1707 54.352C36.4507 54.352 36.7147 54.284 36.9627 54.148C37.2107 54.012 37.4747 53.82 37.7547 53.572V51.952C36.7867 52.072 36.1067 52.252 35.7147 52.492C35.3307 52.732 35.1387 53.04 35.1387 53.416C35.1387 53.744 35.2387 53.984 35.4387 54.136C35.6387 54.28 35.8827 54.352 36.1707 54.352ZM45.2919 55.144C44.7799 55.144 44.3159 55.024 43.8999 54.784C43.4839 54.544 43.1559 54.196 42.9159 53.74C42.6759 53.284 42.5559 52.736 42.5559 52.096C42.5559 51.44 42.6839 50.884 42.9399 50.428C43.2039 49.972 43.5479 49.624 43.9719 49.384C44.4039 49.144 44.8679 49.024 45.3639 49.024C45.7479 49.024 46.0759 49.092 46.3479 49.228C46.6279 49.364 46.8679 49.524 47.0679 49.708L46.5639 50.356C46.3959 50.204 46.2159 50.08 46.0239 49.984C45.8399 49.888 45.6319 49.84 45.3999 49.84C45.0479 49.84 44.7319 49.936 44.4519 50.128C44.1799 50.312 43.9639 50.576 43.8039 50.92C43.6519 51.256 43.5759 51.648 43.5759 52.096C43.5759 52.76 43.7399 53.3 44.0679 53.716C44.4039 54.124 44.8399 54.328 45.3759 54.328C45.6479 54.328 45.8999 54.272 46.1319 54.16C46.3639 54.04 46.5679 53.9 46.7439 53.74L47.1759 54.4C46.9119 54.632 46.6199 54.816 46.2999 54.952C45.9799 55.08 45.6439 55.144 45.2919 55.144ZM50.4708 55.144C49.9988 55.144 49.5548 55.024 49.1388 54.784C48.7308 54.544 48.3988 54.196 48.1428 53.74C47.8948 53.284 47.7708 52.736 47.7708 52.096C47.7708 51.44 47.8948 50.884 48.1428 50.428C48.3988 49.972 48.7308 49.624 49.1388 49.384C49.5548 49.144 49.9988 49.024 50.4708 49.024C50.9508 49.024 51.3948 49.144 51.8028 49.384C52.2108 49.624 52.5388 49.972 52.7868 50.428C53.0428 50.884 53.1708 51.44 53.1708 52.096C53.1708 52.736 53.0428 53.284 52.7868 53.74C52.5388 54.196 52.2108 54.544 51.8028 54.784C51.3948 55.024 50.9508 55.144 50.4708 55.144ZM50.4708 54.328C50.9748 54.328 51.3788 54.124 51.6828 53.716C51.9948 53.3 52.1508 52.76 52.1508 52.096C52.1508 51.424 51.9948 50.88 51.6828 50.464C51.3788 50.048 50.9748 49.84 50.4708 49.84C49.9748 49.84 49.5708 50.048 49.2588 50.464C48.9468 50.88 48.7908 51.424 48.7908 52.096C48.7908 52.76 48.9468 53.3 49.2588 53.716C49.5708 54.124 49.9748 54.328 50.4708 54.328ZM54.7067 55V49.168H55.5227L55.6067 50.008H55.6427C55.8987 49.728 56.1787 49.496 56.4827 49.312C56.7867 49.12 57.1107 49.024 57.4547 49.024C57.9027 49.024 58.2507 49.124 58.4987 49.324C58.7547 49.516 58.9427 49.788 59.0627 50.14C59.3667 49.812 59.6747 49.544 59.9867 49.336C60.2987 49.128 60.6307 49.024 60.9827 49.024C61.5827 49.024 62.0267 49.22 62.3147 49.612C62.6107 49.996 62.7587 50.56 62.7587 51.304V55H61.7747V51.436C61.7747 50.892 61.6867 50.496 61.5107 50.248C61.3347 50 61.0627 49.876 60.6947 49.876C60.2627 49.876 59.7747 50.176 59.2307 50.776V55H58.2467V51.436C58.2467 50.892 58.1587 50.496 57.9827 50.248C57.8067 50 57.5307 49.876 57.1547 49.876C56.7227 49.876 56.2347 50.176 55.6907 50.776V55H54.7067ZM66.9239 55.144C66.4519 55.144 66.0079 55.024 65.5919 54.784C65.1839 54.544 64.8519 54.196 64.5959 53.74C64.3479 53.284 64.2239 52.736 64.2239 52.096C64.2239 51.44 64.3479 50.884 64.5959 50.428C64.8519 49.972 65.1839 49.624 65.5919 49.384C66.0079 49.144 66.4519 49.024 66.9239 49.024C67.4039 49.024 67.8479 49.144 68.2559 49.384C68.6639 49.624 68.9919 49.972 69.2399 50.428C69.4959 50.884 69.6239 51.44 69.6239 52.096C69.6239 52.736 69.4959 53.284 69.2399 53.74C68.9919 54.196 68.6639 54.544 68.2559 54.784C67.8479 55.024 67.4039 55.144 66.9239 55.144ZM66.9239 54.328C67.4279 54.328 67.8319 54.124 68.1359 53.716C68.4479 53.3 68.6039 52.76 68.6039 52.096C68.6039 51.424 68.4479 50.88 68.1359 50.464C67.8319 50.048 67.4279 49.84 66.9239 49.84C66.4279 49.84 66.0239 50.048 65.7119 50.464C65.3999 50.88 65.2439 51.424 65.2439 52.096C65.2439 52.76 65.3999 53.3 65.7119 53.716C66.0239 54.124 66.4279 54.328 66.9239 54.328ZM75.9261 55.144C75.4061 55.144 74.9341 55.024 74.5101 54.784C74.0861 54.536 73.7501 54.184 73.5021 53.728C73.2541 53.272 73.1301 52.728 73.1301 52.096C73.1301 51.456 73.2541 50.908 73.5021 50.452C73.7581 49.996 74.0861 49.644 74.4861 49.396C74.8861 49.148 75.3061 49.024 75.7461 49.024C76.4901 49.024 77.0621 49.272 77.4621 49.768C77.8701 50.264 78.0741 50.928 78.0741 51.76C78.0741 51.864 78.0701 51.968 78.0621 52.072C78.0621 52.168 78.0541 52.252 78.0381 52.324H74.1021C74.1421 52.94 74.3341 53.432 74.6781 53.8C75.0301 54.168 75.4861 54.352 76.0461 54.352C76.3261 54.352 76.5821 54.312 76.8141 54.232C77.0541 54.144 77.2821 54.032 77.4981 53.896L77.8461 54.544C77.5981 54.704 77.3141 54.844 76.9941 54.964C76.6821 55.084 76.3261 55.144 75.9261 55.144ZM74.0901 51.616H77.2101C77.2101 51.024 77.0821 50.576 76.8261 50.272C76.5781 49.96 76.2261 49.804 75.7701 49.804C75.3621 49.804 74.9941 49.964 74.6661 50.284C74.3461 50.596 74.1541 51.04 74.0901 51.616ZM80.5593 55.144C80.1913 55.144 79.9233 55.032 79.7553 54.808C79.5953 54.576 79.5153 54.248 79.5153 53.824V46.456H80.4993V53.896C80.4993 54.048 80.5273 54.16 80.5833 54.232C80.6393 54.296 80.7033 54.328 80.7753 54.328C80.8073 54.328 80.8353 54.328 80.8593 54.328C80.8913 54.32 80.9353 54.312 80.9913 54.304L81.1233 55.048C81.0593 55.08 80.9833 55.104 80.8953 55.12C80.8073 55.136 80.6953 55.144 80.5593 55.144ZM84.9378 55.144C84.4178 55.144 83.9458 55.024 83.5218 54.784C83.0978 54.536 82.7618 54.184 82.5138 53.728C82.2658 53.272 82.1418 52.728 82.1418 52.096C82.1418 51.456 82.2658 50.908 82.5138 50.452C82.7698 49.996 83.0978 49.644 83.4978 49.396C83.8978 49.148 84.3178 49.024 84.7578 49.024C85.5018 49.024 86.0738 49.272 86.4738 49.768C86.8818 50.264 87.0858 50.928 87.0858 51.76C87.0858 51.864 87.0818 51.968 87.0738 52.072C87.0738 52.168 87.0658 52.252 87.0498 52.324H83.1138C83.1538 52.94 83.3458 53.432 83.6898 53.8C84.0418 54.168 84.4978 54.352 85.0578 54.352C85.3378 54.352 85.5938 54.312 85.8258 54.232C86.0658 54.144 86.2938 54.032 86.5098 53.896L86.8578 54.544C86.6098 54.704 86.3258 54.844 86.0058 54.964C85.6938 55.084 85.3378 55.144 84.9378 55.144ZM83.1018 51.616H86.2218C86.2218 51.024 86.0938 50.576 85.8378 50.272C85.5898 49.96 85.2378 49.804 84.7818 49.804C84.3738 49.804 84.0058 49.964 83.6778 50.284C83.3578 50.596 83.1658 51.04 83.1018 51.616ZM92.9213 55.144C92.1933 55.144 91.6093 54.88 91.1693 54.352C90.7293 53.816 90.5093 53.064 90.5093 52.096C90.5093 51.464 90.6253 50.92 90.8573 50.464C91.0973 50 91.4093 49.644 91.7933 49.396C92.1853 49.148 92.6013 49.024 93.0413 49.024C93.3773 49.024 93.6693 49.084 93.9173 49.204C94.1653 49.324 94.4173 49.488 94.6733 49.696L94.6253 48.7V46.456H95.6213V55H94.8053L94.7213 54.316H94.6853C94.4613 54.54 94.1973 54.736 93.8933 54.904C93.5893 55.064 93.2653 55.144 92.9213 55.144ZM93.1373 54.316C93.6493 54.316 94.1453 54.048 94.6253 53.512V50.464C94.3773 50.24 94.1373 50.084 93.9053 49.996C93.6813 49.9 93.4493 49.852 93.2093 49.852C92.8973 49.852 92.6133 49.948 92.3573 50.14C92.1093 50.324 91.9093 50.584 91.7573 50.92C91.6053 51.248 91.5293 51.636 91.5293 52.084C91.5293 52.78 91.6693 53.328 91.9493 53.728C92.2293 54.12 92.6253 54.316 93.1373 54.316ZM99.9496 55.144C99.4296 55.144 98.9576 55.024 98.5336 54.784C98.1096 54.536 97.7736 54.184 97.5256 53.728C97.2776 53.272 97.1536 52.728 97.1536 52.096C97.1536 51.456 97.2776 50.908 97.5256 50.452C97.7816 49.996 98.1096 49.644 98.5096 49.396C98.9096 49.148 99.3296 49.024 99.7696 49.024C100.514 49.024 101.086 49.272 101.486 49.768C101.894 50.264 102.098 50.928 102.098 51.76C102.098 51.864 102.094 51.968 102.086 52.072C102.086 52.168 102.078 52.252 102.062 52.324H98.1256C98.1656 52.94 98.3576 53.432 98.7016 53.8C99.0536 54.168 99.5096 54.352 100.07 54.352C100.35 54.352 100.606 54.312 100.838 54.232C101.078 54.144 101.306 54.032 101.522 53.896L101.87 54.544C101.622 54.704 101.338 54.844 101.018 54.964C100.706 55.084 100.35 55.144 99.9496 55.144ZM98.1136 51.616H101.234C101.234 51.024 101.106 50.576 100.85 50.272C100.602 49.96 100.25 49.804 99.7936 49.804C99.3856 49.804 99.0176 49.964 98.6896 50.284C98.3696 50.596 98.1776 51.04 98.1136 51.616ZM105.243 55.144C104.627 55.144 104.175 54.952 103.887 54.568C103.599 54.176 103.455 53.608 103.455 52.864V49.168H104.451V52.732C104.451 53.276 104.535 53.672 104.703 53.92C104.879 54.168 105.159 54.292 105.543 54.292C105.847 54.292 106.115 54.216 106.347 54.064C106.587 53.904 106.843 53.652 107.115 53.308V49.168H108.099V55H107.283L107.199 54.088H107.163C106.891 54.408 106.603 54.664 106.299 54.856C105.995 55.048 105.643 55.144 105.243 55.144ZM114.772 55.144C114.26 55.144 113.796 55.024 113.38 54.784C112.964 54.544 112.636 54.196 112.396 53.74C112.156 53.284 112.036 52.736 112.036 52.096C112.036 51.44 112.164 50.884 112.42 50.428C112.684 49.972 113.028 49.624 113.452 49.384C113.884 49.144 114.348 49.024 114.844 49.024C115.228 49.024 115.556 49.092 115.828 49.228C116.108 49.364 116.348 49.524 116.548 49.708L116.044 50.356C115.876 50.204 115.696 50.08 115.504 49.984C115.32 49.888 115.112 49.84 114.88 49.84C114.528 49.84 114.212 49.936 113.932 50.128C113.66 50.312 113.444 50.576 113.284 50.92C113.132 51.256 113.056 51.648 113.056 52.096C113.056 52.76 113.22 53.3 113.548 53.716C113.884 54.124 114.32 54.328 114.856 54.328C115.128 54.328 115.38 54.272 115.612 54.16C115.844 54.04 116.048 53.9 116.224 53.74L116.656 54.4C116.392 54.632 116.1 54.816 115.78 54.952C115.46 55.08 115.124 55.144 114.772 55.144ZM120.047 55.144C119.527 55.144 119.055 55.024 118.631 54.784C118.207 54.536 117.871 54.184 117.623 53.728C117.375 53.272 117.251 52.728 117.251 52.096C117.251 51.456 117.375 50.908 117.623 50.452C117.879 49.996 118.207 49.644 118.607 49.396C119.007 49.148 119.427 49.024 119.867 49.024C120.611 49.024 121.183 49.272 121.583 49.768C121.991 50.264 122.195 50.928 122.195 51.76C122.195 51.864 122.191 51.968 122.183 52.072C122.183 52.168 122.175 52.252 122.159 52.324H118.223C118.263 52.94 118.455 53.432 118.799 53.8C119.151 54.168 119.607 54.352 120.167 54.352C120.447 54.352 120.703 54.312 120.935 54.232C121.175 54.144 121.403 54.032 121.619 53.896L121.967 54.544C121.719 54.704 121.435 54.844 121.115 54.964C120.803 55.084 120.447 55.144 120.047 55.144ZM118.211 51.616H121.331C121.331 51.024 121.203 50.576 120.947 50.272C120.699 49.96 120.347 49.804 119.891 49.804C119.483 49.804 119.115 49.964 118.787 50.284C118.467 50.596 118.275 51.04 118.211 51.616ZM123.636 55V49.168H124.452L124.536 50.224H124.572C124.772 49.856 125.016 49.564 125.304 49.348C125.592 49.132 125.9 49.024 126.228 49.024C126.46 49.024 126.668 49.064 126.852 49.144L126.66 50.008C126.564 49.976 126.476 49.952 126.396 49.936C126.316 49.92 126.216 49.912 126.096 49.912C125.848 49.912 125.588 50.012 125.316 50.212C125.052 50.412 124.82 50.76 124.62 51.256V55H123.636ZM129.633 55.144C129.009 55.144 128.573 54.964 128.325 54.604C128.085 54.244 127.965 53.776 127.965 53.2V49.972H127.101V49.228L128.013 49.168L128.133 47.536H128.961V49.168H130.533V49.972H128.961V53.212C128.961 53.572 129.025 53.852 129.153 54.052C129.289 54.244 129.525 54.34 129.861 54.34C129.965 54.34 130.077 54.324 130.197 54.292C130.317 54.252 130.425 54.216 130.521 54.184L130.713 54.928C130.553 54.984 130.377 55.032 130.185 55.072C130.001 55.12 129.817 55.144 129.633 55.144ZM133.955 55.144C133.483 55.144 133.039 55.024 132.623 54.784C132.215 54.544 131.883 54.196 131.627 53.74C131.379 53.284 131.255 52.736 131.255 52.096C131.255 51.44 131.379 50.884 131.627 50.428C131.883 49.972 132.215 49.624 132.623 49.384C133.039 49.144 133.483 49.024 133.955 49.024C134.435 49.024 134.879 49.144 135.287 49.384C135.695 49.624 136.023 49.972 136.271 50.428C136.527 50.884 136.655 51.44 136.655 52.096C136.655 52.736 136.527 53.284 136.271 53.74C136.023 54.196 135.695 54.544 135.287 54.784C134.879 55.024 134.435 55.144 133.955 55.144ZM133.955 54.328C134.459 54.328 134.863 54.124 135.167 53.716C135.479 53.3 135.635 52.76 135.635 52.096C135.635 51.424 135.479 50.88 135.167 50.464C134.863 50.048 134.459 49.84 133.955 49.84C133.459 49.84 133.055 50.048 132.743 50.464C132.431 50.88 132.275 51.424 132.275 52.096C132.275 52.76 132.431 53.3 132.743 53.716C133.055 54.124 133.459 54.328 133.955 54.328ZM138.599 52.624L138.467 48.088L138.443 46.96H139.439L139.415 48.088L139.283 52.624H138.599ZM138.947 55.144C138.747 55.144 138.575 55.076 138.431 54.94C138.295 54.796 138.227 54.616 138.227 54.4C138.227 54.168 138.295 53.984 138.431 53.848C138.575 53.704 138.747 53.632 138.947 53.632C139.139 53.632 139.303 53.704 139.439 53.848C139.583 53.984 139.655 54.168 139.655 54.4C139.655 54.616 139.583 54.796 139.439 54.94C139.303 55.076 139.139 55.144 138.947 55.144ZM144.158 55V47.128H146.126C147.342 47.128 148.266 47.468 148.898 48.148C149.53 48.82 149.846 49.78 149.846 51.028C149.846 52.284 149.53 53.26 148.898 53.956C148.274 54.652 147.366 55 146.174 55H144.158ZM145.154 54.184H146.054C146.974 54.184 147.662 53.908 148.118 53.356C148.582 52.796 148.814 52.02 148.814 51.028C148.814 50.036 148.582 49.276 148.118 48.748C147.662 48.212 146.974 47.944 146.054 47.944H145.154V54.184ZM152.789 55.144C152.301 55.144 151.893 55 151.565 54.712C151.245 54.416 151.085 54.008 151.085 53.488C151.085 52.848 151.369 52.36 151.937 52.024C152.513 51.68 153.421 51.44 154.661 51.304C154.661 51.056 154.625 50.82 154.553 50.596C154.489 50.372 154.369 50.192 154.193 50.056C154.025 49.912 153.781 49.84 153.461 49.84C153.125 49.84 152.809 49.904 152.513 50.032C152.217 50.16 151.953 50.304 151.721 50.464L151.337 49.78C151.609 49.604 151.941 49.436 152.333 49.276C152.733 49.108 153.165 49.024 153.629 49.024C154.341 49.024 154.857 49.244 155.177 49.684C155.497 50.116 155.657 50.696 155.657 51.424V55H154.841L154.757 54.304H154.721C154.449 54.528 154.149 54.724 153.821 54.892C153.501 55.06 153.157 55.144 152.789 55.144ZM153.077 54.352C153.357 54.352 153.621 54.284 153.869 54.148C154.117 54.012 154.381 53.82 154.661 53.572V51.952C153.693 52.072 153.013 52.252 152.621 52.492C152.237 52.732 152.045 53.04 152.045 53.416C152.045 53.744 152.145 53.984 152.345 54.136C152.545 54.28 152.789 54.352 153.077 54.352ZM153.497 48.124L152.993 47.632L154.685 45.628L155.381 46.288L153.497 48.124ZM161.238 55.144C160.75 55.144 160.342 55 160.014 54.712C159.694 54.416 159.534 54.008 159.534 53.488C159.534 52.848 159.818 52.36 160.386 52.024C160.962 51.68 161.87 51.44 163.11 51.304C163.11 51.056 163.074 50.82 163.002 50.596C162.938 50.372 162.818 50.192 162.642 50.056C162.474 49.912 162.23 49.84 161.91 49.84C161.574 49.84 161.258 49.904 160.962 50.032C160.666 50.16 160.402 50.304 160.17 50.464L159.786 49.78C160.058 49.604 160.39 49.436 160.782 49.276C161.182 49.108 161.614 49.024 162.078 49.024C162.79 49.024 163.306 49.244 163.626 49.684C163.946 50.116 164.106 50.696 164.106 51.424V55H163.29L163.206 54.304H163.17C162.898 54.528 162.598 54.724 162.27 54.892C161.95 55.06 161.606 55.144 161.238 55.144ZM161.526 54.352C161.806 54.352 162.07 54.284 162.318 54.148C162.566 54.012 162.83 53.82 163.11 53.572V51.952C162.142 52.072 161.462 52.252 161.07 52.492C160.686 52.732 160.494 53.04 160.494 53.416C160.494 53.744 160.594 53.984 160.794 54.136C160.994 54.28 161.238 54.352 161.526 54.352ZM167.613 55.144C166.989 55.144 166.553 54.964 166.305 54.604C166.065 54.244 165.945 53.776 165.945 53.2V49.972H165.081V49.228L165.993 49.168L166.113 47.536H166.941V49.168H168.513V49.972H166.941V53.212C166.941 53.572 167.005 53.852 167.133 54.052C167.269 54.244 167.505 54.34 167.841 54.34C167.945 54.34 168.057 54.324 168.177 54.292C168.297 54.252 168.405 54.216 168.501 54.184L168.693 54.928C168.533 54.984 168.357 55.032 168.165 55.072C167.981 55.12 167.797 55.144 167.613 55.144ZM172.032 55.144C171.512 55.144 171.04 55.024 170.616 54.784C170.192 54.536 169.856 54.184 169.608 53.728C169.36 53.272 169.236 52.728 169.236 52.096C169.236 51.456 169.36 50.908 169.608 50.452C169.864 49.996 170.192 49.644 170.592 49.396C170.992 49.148 171.412 49.024 171.852 49.024C172.596 49.024 173.168 49.272 173.568 49.768C173.976 50.264 174.18 50.928 174.18 51.76C174.18 51.864 174.176 51.968 174.168 52.072C174.168 52.168 174.16 52.252 174.144 52.324H170.208C170.248 52.94 170.44 53.432 170.784 53.8C171.136 54.168 171.592 54.352 172.152 54.352C172.432 54.352 172.688 54.312 172.92 54.232C173.16 54.144 173.388 54.032 173.604 53.896L173.952 54.544C173.704 54.704 173.42 54.844 173.1 54.964C172.788 55.084 172.432 55.144 172.032 55.144ZM170.196 51.616H173.316C173.316 51.024 173.188 50.576 172.932 50.272C172.684 49.96 172.332 49.804 171.876 49.804C171.468 49.804 171.1 49.964 170.772 50.284C170.452 50.596 170.26 51.04 170.196 51.616ZM171.684 48.124L171.18 47.632L172.872 45.628L173.568 46.288L171.684 48.124ZM178.023 57.46V49.168H178.839L178.923 49.84H178.959C179.223 49.616 179.511 49.424 179.823 49.264C180.143 49.104 180.475 49.024 180.819 49.024C181.571 49.024 182.143 49.296 182.535 49.84C182.927 50.376 183.123 51.096 183.123 52C183.123 52.656 183.003 53.22 182.763 53.692C182.531 54.164 182.223 54.524 181.839 54.772C181.463 55.02 181.051 55.144 180.603 55.144C180.331 55.144 180.059 55.084 179.787 54.964C179.523 54.844 179.255 54.68 178.983 54.472L179.007 55.492V57.46H178.023ZM180.435 54.316C180.915 54.316 181.311 54.112 181.623 53.704C181.943 53.288 182.103 52.72 182.103 52C182.103 51.36 181.983 50.844 181.743 50.452C181.511 50.052 181.119 49.852 180.567 49.852C180.319 49.852 180.067 49.92 179.811 50.056C179.563 50.192 179.295 50.388 179.007 50.644V53.704C179.271 53.928 179.527 54.088 179.775 54.184C180.023 54.272 180.243 54.316 180.435 54.316ZM184.679 55V49.168H185.495L185.579 50.224H185.615C185.815 49.856 186.059 49.564 186.347 49.348C186.635 49.132 186.943 49.024 187.271 49.024C187.503 49.024 187.711 49.064 187.895 49.144L187.703 50.008C187.607 49.976 187.519 49.952 187.439 49.936C187.359 49.92 187.259 49.912 187.139 49.912C186.891 49.912 186.631 50.012 186.359 50.212C186.095 50.412 185.863 50.76 185.663 51.256V55H184.679ZM189.891 55.144C189.403 55.144 188.995 55 188.667 54.712C188.347 54.416 188.187 54.008 188.187 53.488C188.187 52.848 188.471 52.36 189.039 52.024C189.615 51.68 190.523 51.44 191.763 51.304C191.763 51.056 191.727 50.82 191.655 50.596C191.591 50.372 191.471 50.192 191.295 50.056C191.127 49.912 190.883 49.84 190.562 49.84C190.227 49.84 189.911 49.904 189.615 50.032C189.319 50.16 189.055 50.304 188.823 50.464L188.439 49.78C188.711 49.604 189.043 49.436 189.435 49.276C189.835 49.108 190.267 49.024 190.73 49.024C191.443 49.024 191.959 49.244 192.279 49.684C192.599 50.116 192.759 50.696 192.759 51.424V55H191.943L191.859 54.304H191.823C191.551 54.528 191.251 54.724 190.923 54.892C190.603 55.06 190.259 55.144 189.891 55.144ZM190.179 54.352C190.459 54.352 190.723 54.284 190.971 54.148C191.219 54.012 191.483 53.82 191.763 53.572V51.952C190.795 52.072 190.115 52.252 189.723 52.492C189.339 52.732 189.146 53.04 189.146 53.416C189.146 53.744 189.247 53.984 189.447 54.136C189.647 54.28 189.891 54.352 190.179 54.352ZM198.832 55.144C198.208 55.144 197.772 54.964 197.524 54.604C197.284 54.244 197.164 53.776 197.164 53.2V49.972H196.3V49.228L197.212 49.168L197.332 47.536H198.16V49.168H199.732V49.972H198.16V53.212C198.16 53.572 198.224 53.852 198.352 54.052C198.488 54.244 198.724 54.34 199.06 54.34C199.164 54.34 199.276 54.324 199.396 54.292C199.516 54.252 199.624 54.216 199.72 54.184L199.912 54.928C199.752 54.984 199.576 55.032 199.384 55.072C199.2 55.12 199.016 55.144 198.832 55.144ZM203.25 55.144C202.73 55.144 202.258 55.024 201.834 54.784C201.41 54.536 201.074 54.184 200.826 53.728C200.578 53.272 200.454 52.728 200.454 52.096C200.454 51.456 200.578 50.908 200.826 50.452C201.082 49.996 201.41 49.644 201.81 49.396C202.21 49.148 202.63 49.024 203.07 49.024C203.814 49.024 204.386 49.272 204.786 49.768C205.194 50.264 205.398 50.928 205.398 51.76C205.398 51.864 205.394 51.968 205.386 52.072C205.386 52.168 205.378 52.252 205.362 52.324H201.426C201.466 52.94 201.658 53.432 202.002 53.8C202.354 54.168 202.81 54.352 203.37 54.352C203.65 54.352 203.906 54.312 204.138 54.232C204.378 54.144 204.606 54.032 204.822 53.896L205.17 54.544C204.922 54.704 204.638 54.844 204.318 54.964C204.006 55.084 203.65 55.144 203.25 55.144ZM201.414 51.616H204.534C204.534 51.024 204.406 50.576 204.15 50.272C203.902 49.96 203.55 49.804 203.094 49.804C202.686 49.804 202.318 49.964 201.99 50.284C201.67 50.596 201.478 51.04 201.414 51.616ZM206.839 55V49.168H207.655L207.739 50.224H207.775C207.975 49.856 208.219 49.564 208.507 49.348C208.795 49.132 209.103 49.024 209.431 49.024C209.663 49.024 209.871 49.064 210.055 49.144L209.863 50.008C209.767 49.976 209.679 49.952 209.599 49.936C209.519 49.92 209.419 49.912 209.299 49.912C209.051 49.912 208.791 50.012 208.519 50.212C208.255 50.412 208.023 50.76 207.823 51.256V55H206.839ZM18.976 71.144C18.248 71.144 17.664 70.88 17.224 70.352C16.784 69.816 16.564 69.064 16.564 68.096C16.564 67.464 16.68 66.92 16.912 66.464C17.152 66 17.464 65.644 17.848 65.396C18.24 65.148 18.656 65.024 19.096 65.024C19.432 65.024 19.724 65.084 19.972 65.204C20.22 65.324 20.472 65.488 20.728 65.696L20.68 64.7V62.456H21.676V71H20.86L20.776 70.316H20.74C20.516 70.54 20.252 70.736 19.948 70.904C19.644 71.064 19.32 71.144 18.976 71.144ZM19.192 70.316C19.704 70.316 20.2 70.048 20.68 69.512V66.464C20.432 66.24 20.192 66.084 19.96 65.996C19.736 65.9 19.504 65.852 19.264 65.852C18.952 65.852 18.668 65.948 18.412 66.14C18.164 66.324 17.964 66.584 17.812 66.92C17.66 67.248 17.584 67.636 17.584 68.084C17.584 68.78 17.724 69.328 18.004 69.728C18.284 70.12 18.68 70.316 19.192 70.316ZM25.3443 71.144C24.7283 71.144 24.2763 70.952 23.9883 70.568C23.7003 70.176 23.5563 69.608 23.5563 68.864V65.168H24.5523V68.732C24.5523 69.276 24.6363 69.672 24.8043 69.92C24.9803 70.168 25.2603 70.292 25.6443 70.292C25.9483 70.292 26.2163 70.216 26.4483 70.064C26.6883 69.904 26.9443 69.652 27.2163 69.308V65.168H28.2003V71H27.3843L27.3003 70.088H27.2643C26.9923 70.408 26.7043 70.664 26.4003 70.856C26.0963 71.048 25.7443 71.144 25.3443 71.144ZM31.5116 71.144C31.0236 71.144 30.6156 71 30.2876 70.712C29.9676 70.416 29.8076 70.008 29.8076 69.488C29.8076 68.848 30.0916 68.36 30.6596 68.024C31.2356 67.68 32.1436 67.44 33.3836 67.304C33.3836 67.056 33.3476 66.82 33.2756 66.596C33.2116 66.372 33.0916 66.192 32.9156 66.056C32.7476 65.912 32.5036 65.84 32.1836 65.84C31.8476 65.84 31.5316 65.904 31.2356 66.032C30.9396 66.16 30.6756 66.304 30.4436 66.464L30.0596 65.78C30.3316 65.604 30.6636 65.436 31.0556 65.276C31.4556 65.108 31.8876 65.024 32.3516 65.024C33.0636 65.024 33.5796 65.244 33.8996 65.684C34.2196 66.116 34.3796 66.696 34.3796 67.424V71H33.5636L33.4796 70.304H33.4436C33.1716 70.528 32.8716 70.724 32.5436 70.892C32.2236 71.06 31.8796 71.144 31.5116 71.144ZM31.7996 70.352C32.0796 70.352 32.3436 70.284 32.5916 70.148C32.8396 70.012 33.1036 69.82 33.3836 69.572V67.952C32.4156 68.072 31.7356 68.252 31.3436 68.492C30.9596 68.732 30.7676 69.04 30.7676 69.416C30.7676 69.744 30.8676 69.984 31.0676 70.136C31.2676 70.28 31.5116 70.352 31.7996 70.352ZM37.7385 71.144C37.3225 71.144 36.9265 71.068 36.5505 70.916C36.1745 70.756 35.8465 70.564 35.5665 70.34L36.0585 69.68C36.3145 69.88 36.5785 70.048 36.8505 70.184C37.1225 70.312 37.4305 70.376 37.7745 70.376C38.1585 70.376 38.4465 70.288 38.6385 70.112C38.8305 69.928 38.9265 69.712 38.9265 69.464C38.9265 69.264 38.8585 69.096 38.7225 68.96C38.5945 68.824 38.4265 68.712 38.2185 68.624C38.0185 68.528 37.8105 68.44 37.5945 68.36C37.3225 68.256 37.0545 68.14 36.7905 68.012C36.5265 67.876 36.3105 67.704 36.1425 67.496C35.9745 67.28 35.8905 67.008 35.8905 66.68C35.8905 66.208 36.0665 65.816 36.4185 65.504C36.7785 65.184 37.2745 65.024 37.9065 65.024C38.2665 65.024 38.6025 65.088 38.9145 65.216C39.2265 65.344 39.4945 65.5 39.7185 65.684L39.2385 66.308C39.0385 66.156 38.8305 66.032 38.6145 65.936C38.3985 65.84 38.1625 65.792 37.9065 65.792C37.5385 65.792 37.2665 65.876 37.0905 66.044C36.9225 66.212 36.8385 66.408 36.8385 66.632C36.8385 66.816 36.8985 66.968 37.0185 67.088C37.1385 67.2 37.2945 67.3 37.4865 67.388C37.6785 67.468 37.8825 67.552 38.0985 67.64C38.3785 67.744 38.6545 67.864 38.9265 68C39.1985 68.128 39.4225 68.304 39.5985 68.528C39.7825 68.744 39.8745 69.036 39.8745 69.404C39.8745 69.716 39.7905 70.004 39.6225 70.268C39.4625 70.532 39.2225 70.744 38.9025 70.904C38.5905 71.064 38.2025 71.144 37.7385 71.144ZM44.6882 71.144C44.3202 71.144 44.0522 71.032 43.8842 70.808C43.7242 70.576 43.6442 70.248 43.6442 69.824V62.456H44.6282V69.896C44.6282 70.048 44.6562 70.16 44.7122 70.232C44.7682 70.296 44.8322 70.328 44.9042 70.328C44.9362 70.328 44.9642 70.328 44.9882 70.328C45.0202 70.32 45.0642 70.312 45.1202 70.304L45.2522 71.048C45.1882 71.08 45.1122 71.104 45.0242 71.12C44.9362 71.136 44.8242 71.144 44.6882 71.144ZM46.7028 71V65.168H47.6868V71H46.7028ZM47.2068 63.968C47.0148 63.968 46.8548 63.912 46.7268 63.8C46.6068 63.68 46.5468 63.52 46.5468 63.32C46.5468 63.128 46.6068 62.972 46.7268 62.852C46.8548 62.732 47.0148 62.672 47.2068 62.672C47.3988 62.672 47.5548 62.732 47.6748 62.852C47.8028 62.972 47.8668 63.128 47.8668 63.32C47.8668 63.52 47.8028 63.68 47.6748 63.8C47.5548 63.912 47.3988 63.968 47.2068 63.968ZM49.6559 71V65.168H50.4719L50.5559 66.008H50.5919C50.8719 65.728 51.1679 65.496 51.4799 65.312C51.7919 65.12 52.1479 65.024 52.5479 65.024C53.1639 65.024 53.6119 65.22 53.8919 65.612C54.1799 65.996 54.3239 66.56 54.3239 67.304V71H53.3399V67.436C53.3399 66.892 53.2519 66.496 53.0759 66.248C52.8999 66 52.6199 65.876 52.2359 65.876C51.9399 65.876 51.6719 65.952 51.4319 66.104C51.1999 66.256 50.9359 66.48 50.6399 66.776V71H49.6559ZM56.2184 71V62.456H57.2024V64.784L57.1664 65.984C57.4464 65.72 57.7384 65.496 58.0424 65.312C58.3544 65.12 58.7104 65.024 59.1104 65.024C59.7264 65.024 60.1744 65.22 60.4544 65.612C60.7424 65.996 60.8864 66.56 60.8864 67.304V71H59.9024V67.436C59.9024 66.892 59.8144 66.496 59.6384 66.248C59.4624 66 59.1824 65.876 58.7984 65.876C58.5024 65.876 58.2344 65.952 57.9944 66.104C57.7624 66.256 57.4984 66.48 57.2024 66.776V71H56.2184ZM64.0897 71.144C63.6017 71.144 63.1937 71 62.8657 70.712C62.5457 70.416 62.3857 70.008 62.3857 69.488C62.3857 68.848 62.6697 68.36 63.2377 68.024C63.8137 67.68 64.7217 67.44 65.9617 67.304C65.9617 67.056 65.9257 66.82 65.8537 66.596C65.7897 66.372 65.6697 66.192 65.4937 66.056C65.3257 65.912 65.0817 65.84 64.7617 65.84C64.4257 65.84 64.1097 65.904 63.8137 66.032C63.5177 66.16 63.2537 66.304 63.0217 66.464L62.6377 65.78C62.9097 65.604 63.2417 65.436 63.6337 65.276C64.0337 65.108 64.4657 65.024 64.9297 65.024C65.6417 65.024 66.1577 65.244 66.4777 65.684C66.7977 66.116 66.9577 66.696 66.9577 67.424V71H66.1417L66.0577 70.304H66.0217C65.7497 70.528 65.4497 70.724 65.1217 70.892C64.8017 71.06 64.4577 71.144 64.0897 71.144ZM64.3777 70.352C64.6577 70.352 64.9217 70.284 65.1697 70.148C65.4177 70.012 65.6817 69.82 65.9617 69.572V67.952C64.9937 68.072 64.3137 68.252 63.9217 68.492C63.5377 68.732 63.3457 69.04 63.3457 69.416C63.3457 69.744 63.4457 69.984 63.6457 70.136C63.8457 70.28 64.0897 70.352 64.3777 70.352ZM70.3166 71.144C69.9006 71.144 69.5046 71.068 69.1286 70.916C68.7526 70.756 68.4246 70.564 68.1446 70.34L68.6366 69.68C68.8926 69.88 69.1566 70.048 69.4286 70.184C69.7006 70.312 70.0086 70.376 70.3526 70.376C70.7366 70.376 71.0246 70.288 71.2166 70.112C71.4086 69.928 71.5046 69.712 71.5046 69.464C71.5046 69.264 71.4366 69.096 71.3006 68.96C71.1726 68.824 71.0046 68.712 70.7966 68.624C70.5966 68.528 70.3886 68.44 70.1726 68.36C69.9006 68.256 69.6326 68.14 69.3686 68.012C69.1046 67.876 68.8886 67.704 68.7206 67.496C68.5526 67.28 68.4686 67.008 68.4686 66.68C68.4686 66.208 68.6446 65.816 68.9966 65.504C69.3566 65.184 69.8526 65.024 70.4846 65.024C70.8446 65.024 71.1806 65.088 71.4926 65.216C71.8046 65.344 72.0726 65.5 72.2966 65.684L71.8166 66.308C71.6166 66.156 71.4086 66.032 71.1926 65.936C70.9766 65.84 70.7406 65.792 70.4846 65.792C70.1166 65.792 69.8446 65.876 69.6686 66.044C69.5006 66.212 69.4166 66.408 69.4166 66.632C69.4166 66.816 69.4766 66.968 69.5966 67.088C69.7166 67.2 69.8726 67.3 70.0646 67.388C70.2566 67.468 70.4606 67.552 70.6766 67.64C70.9566 67.744 71.2326 67.864 71.5046 68C71.7766 68.128 72.0006 68.304 72.1766 68.528C72.3606 68.744 72.4526 69.036 72.4526 69.404C72.4526 69.716 72.3686 70.004 72.2006 70.268C72.0406 70.532 71.8006 70.744 71.4806 70.904C71.1686 71.064 70.7806 71.144 70.3166 71.144ZM78.2143 71.144C77.4863 71.144 76.9023 70.88 76.4623 70.352C76.0223 69.816 75.8023 69.064 75.8023 68.096C75.8023 67.464 75.9183 66.92 76.1503 66.464C76.3903 66 76.7023 65.644 77.0863 65.396C77.4783 65.148 77.8943 65.024 78.3343 65.024C78.6703 65.024 78.9623 65.084 79.2103 65.204C79.4583 65.324 79.7103 65.488 79.9663 65.696L79.9183 64.7V62.456H80.9143V71H80.0983L80.0143 70.316H79.9783C79.7543 70.54 79.4903 70.736 79.1863 70.904C78.8823 71.064 78.5583 71.144 78.2143 71.144ZM78.4303 70.316C78.9423 70.316 79.4383 70.048 79.9183 69.512V66.464C79.6703 66.24 79.4303 66.084 79.1983 65.996C78.9743 65.9 78.7423 65.852 78.5023 65.852C78.1903 65.852 77.9063 65.948 77.6503 66.14C77.4023 66.324 77.2023 66.584 77.0503 66.92C76.8983 67.248 76.8223 67.636 76.8223 68.084C76.8223 68.78 76.9623 69.328 77.2423 69.728C77.5223 70.12 77.9183 70.316 78.4303 70.316ZM85.2425 71.144C84.7225 71.144 84.2505 71.024 83.8265 70.784C83.4025 70.536 83.0665 70.184 82.8185 69.728C82.5705 69.272 82.4465 68.728 82.4465 68.096C82.4465 67.456 82.5705 66.908 82.8185 66.452C83.0745 65.996 83.4025 65.644 83.8025 65.396C84.2025 65.148 84.6225 65.024 85.0625 65.024C85.8065 65.024 86.3785 65.272 86.7785 65.768C87.1865 66.264 87.3905 66.928 87.3905 67.76C87.3905 67.864 87.3865 67.968 87.3785 68.072C87.3785 68.168 87.3705 68.252 87.3545 68.324H83.4185C83.4585 68.94 83.6505 69.432 83.9945 69.8C84.3465 70.168 84.8025 70.352 85.3625 70.352C85.6425 70.352 85.8985 70.312 86.1305 70.232C86.3705 70.144 86.5985 70.032 86.8145 69.896L87.1625 70.544C86.9145 70.704 86.6305 70.844 86.3105 70.964C85.9985 71.084 85.6425 71.144 85.2425 71.144ZM83.4065 67.616H86.5265C86.5265 67.024 86.3985 66.576 86.1425 66.272C85.8945 65.96 85.5425 65.804 85.0865 65.804C84.6785 65.804 84.3105 65.964 83.9825 66.284C83.6625 66.596 83.4705 67.04 83.4065 67.616ZM93.07 71.144C92.446 71.144 92.01 70.964 91.762 70.604C91.522 70.244 91.402 69.776 91.402 69.2V65.972H90.538V65.228L91.45 65.168L91.57 63.536H92.398V65.168H93.97V65.972H92.398V69.212C92.398 69.572 92.462 69.852 92.59 70.052C92.726 70.244 92.962 70.34 93.298 70.34C93.402 70.34 93.514 70.324 93.634 70.292C93.754 70.252 93.862 70.216 93.958 70.184L94.15 70.928C93.99 70.984 93.814 71.032 93.622 71.072C93.438 71.12 93.254 71.144 93.07 71.144ZM95.2887 71V65.168H96.2727V71H95.2887ZM95.6247 64.124L95.1207 63.632L96.8127 61.628L97.5087 62.288L95.6247 64.124ZM100.078 71.144C99.4538 71.144 99.0178 70.964 98.7698 70.604C98.5298 70.244 98.4098 69.776 98.4098 69.2V65.972H97.5458V65.228L98.4578 65.168L98.5778 63.536H99.4058V65.168H100.978V65.972H99.4058V69.212C99.4058 69.572 99.4698 69.852 99.5978 70.052C99.7338 70.244 99.9698 70.34 100.306 70.34C100.41 70.34 100.522 70.324 100.642 70.292C100.762 70.252 100.87 70.216 100.966 70.184L101.158 70.928C100.998 70.984 100.822 71.032 100.63 71.072C100.446 71.12 100.262 71.144 100.078 71.144ZM104.001 71.144C103.385 71.144 102.933 70.952 102.645 70.568C102.357 70.176 102.213 69.608 102.213 68.864V65.168H103.209V68.732C103.209 69.276 103.293 69.672 103.461 69.92C103.637 70.168 103.917 70.292 104.301 70.292C104.605 70.292 104.873 70.216 105.105 70.064C105.345 69.904 105.601 69.652 105.873 69.308V65.168H106.857V71H106.041L105.957 70.088H105.921C105.649 70.408 105.361 70.664 105.057 70.856C104.753 71.048 104.401 71.144 104.001 71.144ZM109.868 71.144C109.5 71.144 109.232 71.032 109.064 70.808C108.904 70.576 108.824 70.248 108.824 69.824V62.456H109.808V69.896C109.808 70.048 109.836 70.16 109.892 70.232C109.948 70.296 110.012 70.328 110.084 70.328C110.116 70.328 110.144 70.328 110.168 70.328C110.2 70.32 110.244 70.312 110.3 70.304L110.432 71.048C110.368 71.08 110.292 71.104 110.204 71.12C110.116 71.136 110.004 71.144 109.868 71.144ZM114.15 71.144C113.678 71.144 113.234 71.024 112.818 70.784C112.41 70.544 112.078 70.196 111.822 69.74C111.574 69.284 111.45 68.736 111.45 68.096C111.45 67.44 111.574 66.884 111.822 66.428C112.078 65.972 112.41 65.624 112.818 65.384C113.234 65.144 113.678 65.024 114.15 65.024C114.63 65.024 115.074 65.144 115.482 65.384C115.89 65.624 116.218 65.972 116.466 66.428C116.722 66.884 116.85 67.44 116.85 68.096C116.85 68.736 116.722 69.284 116.466 69.74C116.218 70.196 115.89 70.544 115.482 70.784C115.074 71.024 114.63 71.144 114.15 71.144ZM114.15 70.328C114.654 70.328 115.058 70.124 115.362 69.716C115.674 69.3 115.83 68.76 115.83 68.096C115.83 67.424 115.674 66.88 115.362 66.464C115.058 66.048 114.654 65.84 114.15 65.84C113.654 65.84 113.25 66.048 112.938 66.464C112.626 66.88 112.47 67.424 112.47 68.096C112.47 68.76 112.626 69.3 112.938 69.716C113.25 70.124 113.654 70.328 114.15 70.328ZM123.153 71.144C122.633 71.144 122.161 71.024 121.737 70.784C121.313 70.536 120.977 70.184 120.729 69.728C120.481 69.272 120.357 68.728 120.357 68.096C120.357 67.456 120.481 66.908 120.729 66.452C120.985 65.996 121.313 65.644 121.713 65.396C122.113 65.148 122.533 65.024 122.973 65.024C123.717 65.024 124.289 65.272 124.689 65.768C125.097 66.264 125.301 66.928 125.301 67.76C125.301 67.864 125.297 67.968 125.289 68.072C125.289 68.168 125.281 68.252 125.265 68.324H121.329C121.369 68.94 121.561 69.432 121.905 69.8C122.257 70.168 122.713 70.352 123.273 70.352C123.553 70.352 123.809 70.312 124.041 70.232C124.281 70.144 124.509 70.032 124.725 69.896L125.073 70.544C124.825 70.704 124.541 70.844 124.221 70.964C123.909 71.084 123.553 71.144 123.153 71.144ZM121.317 67.616H124.437C124.437 67.024 124.309 66.576 124.053 66.272C123.805 65.96 123.453 65.804 122.997 65.804C122.589 65.804 122.221 65.964 121.893 66.284C121.573 66.596 121.381 67.04 121.317 67.616ZM130.668 71.144C130.252 71.144 129.856 71.068 129.48 70.916C129.104 70.756 128.776 70.564 128.496 70.34L128.988 69.68C129.244 69.88 129.508 70.048 129.78 70.184C130.052 70.312 130.36 70.376 130.704 70.376C131.088 70.376 131.376 70.288 131.568 70.112C131.76 69.928 131.856 69.712 131.856 69.464C131.856 69.264 131.788 69.096 131.652 68.96C131.524 68.824 131.356 68.712 131.148 68.624C130.948 68.528 130.74 68.44 130.524 68.36C130.252 68.256 129.984 68.14 129.72 68.012C129.456 67.876 129.24 67.704 129.072 67.496C128.904 67.28 128.82 67.008 128.82 66.68C128.82 66.208 128.996 65.816 129.348 65.504C129.708 65.184 130.204 65.024 130.836 65.024C131.196 65.024 131.532 65.088 131.844 65.216C132.156 65.344 132.424 65.5 132.648 65.684L132.168 66.308C131.968 66.156 131.76 66.032 131.544 65.936C131.328 65.84 131.092 65.792 130.836 65.792C130.468 65.792 130.196 65.876 130.02 66.044C129.852 66.212 129.768 66.408 129.768 66.632C129.768 66.816 129.828 66.968 129.948 67.088C130.068 67.2 130.224 67.3 130.416 67.388C130.608 67.468 130.812 67.552 131.028 67.64C131.308 67.744 131.584 67.864 131.856 68C132.128 68.128 132.352 68.304 132.528 68.528C132.712 68.744 132.804 69.036 132.804 69.404C132.804 69.716 132.72 70.004 132.552 70.268C132.392 70.532 132.152 70.744 131.832 70.904C131.52 71.064 131.132 71.144 130.668 71.144ZM135.876 71.144C135.26 71.144 134.808 70.952 134.52 70.568C134.232 70.176 134.088 69.608 134.088 68.864V65.168H135.084V68.732C135.084 69.276 135.168 69.672 135.336 69.92C135.512 70.168 135.792 70.292 136.176 70.292C136.48 70.292 136.748 70.216 136.98 70.064C137.22 69.904 137.476 69.652 137.748 69.308V65.168H138.732V71H137.916L137.832 70.088H137.796C137.524 70.408 137.236 70.664 136.932 70.856C136.628 71.048 136.276 71.144 135.876 71.144ZM143.279 71.144C143.007 71.144 142.723 71.08 142.427 70.952C142.139 70.816 141.867 70.632 141.611 70.4H141.575L141.491 71H140.699V62.456H141.683V64.784L141.659 65.84C141.923 65.608 142.211 65.416 142.523 65.264C142.843 65.104 143.163 65.024 143.483 65.024C144.243 65.024 144.819 65.292 145.211 65.828C145.603 66.364 145.799 67.084 145.799 67.988C145.799 68.652 145.679 69.22 145.439 69.692C145.207 70.164 144.899 70.524 144.515 70.772C144.139 71.02 143.727 71.144 143.279 71.144ZM143.111 70.316C143.591 70.316 143.987 70.112 144.299 69.704C144.619 69.288 144.779 68.72 144.779 68C144.779 67.36 144.659 66.844 144.419 66.452C144.187 66.052 143.795 65.852 143.243 65.852C142.995 65.852 142.743 65.92 142.487 66.056C142.231 66.192 141.963 66.388 141.683 66.644V69.704C141.939 69.928 142.191 70.088 142.439 70.184C142.695 70.272 142.919 70.316 143.111 70.316ZM148.968 71.144C148.344 71.144 147.908 70.964 147.66 70.604C147.42 70.244 147.3 69.776 147.3 69.2V65.972H146.436V65.228L147.348 65.168L147.468 63.536H148.296V65.168H149.868V65.972H148.296V69.212C148.296 69.572 148.36 69.852 148.488 70.052C148.624 70.244 148.86 70.34 149.196 70.34C149.3 70.34 149.412 70.324 149.532 70.292C149.652 70.252 149.76 70.216 149.856 70.184L150.048 70.928C149.888 70.984 149.712 71.032 149.52 71.072C149.336 71.12 149.152 71.144 148.968 71.144ZM151.187 71V65.168H152.171V71H151.187ZM151.523 64.124L151.019 63.632L152.711 61.628L153.407 62.288L151.523 64.124ZM155.976 71.144C155.352 71.144 154.916 70.964 154.668 70.604C154.428 70.244 154.308 69.776 154.308 69.2V65.972H153.444V65.228L154.356 65.168L154.476 63.536H155.304V65.168H156.876V65.972H155.304V69.212C155.304 69.572 155.368 69.852 155.496 70.052C155.632 70.244 155.868 70.34 156.204 70.34C156.308 70.34 156.42 70.324 156.54 70.292C156.66 70.252 156.768 70.216 156.864 70.184L157.056 70.928C156.896 70.984 156.72 71.032 156.528 71.072C156.344 71.12 156.16 71.144 155.976 71.144ZM159.899 71.144C159.283 71.144 158.831 70.952 158.543 70.568C158.255 70.176 158.111 69.608 158.111 68.864V65.168H159.107V68.732C159.107 69.276 159.191 69.672 159.359 69.92C159.535 70.168 159.815 70.292 160.199 70.292C160.503 70.292 160.771 70.216 161.003 70.064C161.243 69.904 161.499 69.652 161.771 69.308V65.168H162.755V71H161.939L161.855 70.088H161.819C161.547 70.408 161.259 70.664 160.955 70.856C160.651 71.048 160.299 71.144 159.899 71.144ZM165.766 71.144C165.398 71.144 165.13 71.032 164.962 70.808C164.802 70.576 164.722 70.248 164.722 69.824V62.456H165.706V69.896C165.706 70.048 165.734 70.16 165.79 70.232C165.846 70.296 165.91 70.328 165.982 70.328C166.014 70.328 166.042 70.328 166.066 70.328C166.098 70.32 166.142 70.312 166.198 70.304L166.33 71.048C166.266 71.08 166.19 71.104 166.102 71.12C166.014 71.136 165.902 71.144 165.766 71.144ZM170.049 71.144C169.577 71.144 169.133 71.024 168.717 70.784C168.309 70.544 167.977 70.196 167.721 69.74C167.473 69.284 167.349 68.736 167.349 68.096C167.349 67.44 167.473 66.884 167.721 66.428C167.977 65.972 168.309 65.624 168.717 65.384C169.133 65.144 169.577 65.024 170.049 65.024C170.529 65.024 170.973 65.144 171.381 65.384C171.789 65.624 172.117 65.972 172.365 66.428C172.621 66.884 172.749 67.44 172.749 68.096C172.749 68.736 172.621 69.284 172.365 69.74C172.117 70.196 171.789 70.544 171.381 70.784C170.973 71.024 170.529 71.144 170.049 71.144ZM170.049 70.328C170.553 70.328 170.957 70.124 171.261 69.716C171.573 69.3 171.729 68.76 171.729 68.096C171.729 67.424 171.573 66.88 171.261 66.464C170.957 66.048 170.553 65.84 170.049 65.84C169.553 65.84 169.149 66.048 168.837 66.464C168.525 66.88 168.369 67.424 168.369 68.096C168.369 68.76 168.525 69.3 168.837 69.716C169.149 70.124 169.553 70.328 170.049 70.328Z" fill="white"/>
<g clip-path="url(#clip0_18_4)">
<path d="M283.397 23.611C275.158 9.83318 262.879 17.8582 261.963 23.611C252.993 22.5511 249.3 31.1181 249.071 35.534C245.065 34.3535 239.036 38.8535 238.393 46.4736C237.75 54.0938 243.198 59.2807 252.275 57.5255C257.401 67.9118 268.751 64.3261 273.785 61.2349C284.037 71.4095 291.024 61.7648 293.237 55.6708C294.762 56.6423 298.82 57.7375 302.848 54.346C312.905 43.8241 303.523 32.4309 295.983 33.1494C294.152 24.2469 286.829 23.081 283.397 23.611Z" fill="#EEE6FC"/>
<path fill-rule="evenodd" clip-rule="evenodd" d="M238.435 46.049C239.178 52.113 244.34 55.884 252.275 54.3496C257.401 64.7359 268.751 61.1501 273.785 58.059C284.037 68.2333 291.024 58.5889 293.237 52.4949C294.762 53.4664 298.82 54.5615 302.848 51.1701C305.449 48.4485 306.75 45.6686 307.118 43.0551C307.611 46.5086 306.537 50.486 302.848 54.3461C298.82 57.7375 294.762 56.6423 293.237 55.6709C291.024 61.7649 284.037 71.4095 273.785 61.235C268.751 64.3261 257.401 67.9119 252.275 57.5256C243.198 59.2808 237.75 54.0938 238.393 46.4737C238.405 46.331 238.419 46.1895 238.435 46.049Z" fill="#B89FEA"/>
<path d="M280.782 58.4688C286.436 70.7889 299.267 87.3514 305.36 55.0432C306.639 56.3499 309.234 59.586 309.378 62.0772" stroke="#241249" stroke-width="1.27422" stroke-linecap="round" stroke-linejoin="round"/>
<path d="M262.907 60.0108C261.919 70.9357 264.32 87.7218 281.821 67.4698C282.201 68.9013 282.733 72.2165 281.821 74.0246" stroke="#241249" stroke-width="1.27422" stroke-linecap="round" stroke-linejoin="round"/>
<path d="M249.904 38.2802C245.515 41.534 237.337 49.4742 239.733 55.2037C242.13 60.9332 253.7 54.0623 259.185 49.9106C258.889 47.0058 258.602 46.0948 257.083 43.7229" stroke="#241249" stroke-width="1.27422" stroke-linecap="round" stroke-linejoin="round"/>
<path d="M289.68 39.4208C294.715 40.7455 304.53 47.469 302.133 53.1985C299.737 58.928 280.806 53.6368 275.32 49.4852C275.616 46.5804 275.904 45.6694 277.423 43.2975" stroke="#241249" stroke-width="1.27422" stroke-linecap="round" stroke-linejoin="round"/>
<path d="M250.545 26.6213C250.881 21.7733 254.882 26.0557 256.841 28.8029C258.24 26.2981 261.668 22.0157 264.186 24.9245C266.621 27.7367 261.667 34.5515 258.617 37.9216C258.441 38.1157 258.152 38.1495 257.939 37.9965C255.125 35.9691 250.224 31.2582 250.545 26.6213Z" fill="#6732D1"/>
<path d="M266.446 25.2803C266.87 19.9811 271.922 24.662 274.395 27.6649C276.161 24.927 280.489 20.2461 283.669 23.4256C286.77 26.5266 280.377 34.0805 276.536 37.729C276.366 37.8905 276.111 37.9171 275.911 37.7943C272.381 35.6242 266.036 30.4108 266.446 25.2803Z" fill="#6732D1"/>
<path d="M271.525 37.9621C266.905 38.3295 263.81 39.7143 262.406 40.6457C262.123 40.8335 262.137 41.2353 262.418 41.426C268.206 45.3528 271.114 41.5521 272.043 38.5908C272.149 38.2554 271.875 37.9342 271.525 37.9621Z" fill="white"/>
</g>
<defs>
<clipPath id="clip0_18_4">
<rect width="73.6581" height="62" fill="white" transform="translate(238.342 16)"/>
</clipPath>
</defs>
</svg>
